<svg preserveAspectRatio="none" overflow="visible" style="display: block;" width="23.6736" height="18.3207" viewBox="0 0 23.6736 18.3207" fill="none" xmlns="http://www.w3.org/2000/svg">
<g id="jcb">
<path id="Path" d="M23.6735 14.6218C23.6735 16.6644 22.0254 18.3207 19.9914 18.3207H0V3.69953C0 1.65636 1.64815 0 3.68251 0H23.6735V14.6218Z" fill="white"/>
<path id="Shape" d="M17.1796 9.31722C17.75 9.32983 18.3237 9.29161 18.8918 9.33707C19.4671 9.4462 19.6059 10.3317 19.0946 10.6218C18.7459 10.8128 18.3316 10.6929 17.9535 10.7266H17.1796V9.31722ZM19.2216 7.72195C19.3484 8.17673 18.9171 8.58507 18.4864 8.52244H17.1796C17.1888 8.09356 17.1617 7.62805 17.1929 7.22176C17.7163 7.23674 18.2446 7.19119 18.7652 7.24558C18.9886 7.3027 19.1759 7.48959 19.2216 7.72195ZM22.3663 0.977569C22.3907 1.84612 22.3699 2.76055 22.3768 3.6467C22.3752 7.24945 22.3802 10.8521 22.3742 14.455C22.3511 15.8052 21.1741 16.9785 19.8554 17.0054C18.5352 17.0109 17.2148 17.0064 15.8944 17.0077V11.5612C17.333 11.5536 18.7724 11.5765 20.2103 11.5498C20.8775 11.5072 21.6081 11.0597 21.6391 10.3133C21.7176 9.56377 21.0226 9.04532 20.3627 8.96343C20.109 8.95673 20.1164 8.88825 20.3627 8.85836C20.992 8.72005 21.4863 8.05773 21.3011 7.39441C21.1434 6.69675 20.3848 6.42672 19.754 6.42807C18.4678 6.41918 17.1811 6.42683 15.8947 6.42424C15.9032 5.40743 15.8774 4.38952 15.9086 3.37346C16.0105 2.04761 17.2172 0.95422 18.5174 0.977948C19.8005 0.977752 21.0835 0.977752 22.3663 0.977569Z" fill="url(#paint0_linear_0_91)"/>
<path id="Path_2" d="M1.33497 3.51099C1.36769 2.16293 2.54475 0.999332 3.85641 0.979631C5.16618 0.975513 6.47614 0.979045 7.78591 0.977843C7.78231 5.48818 7.793 9.999 7.78052 14.509C7.73006 15.8408 6.56582 16.9822 5.26846 17.0058C3.9562 17.0106 2.64381 17.0064 1.33152 17.0078V11.3776C2.60619 11.6851 3.94288 11.8159 5.24327 11.612C6.02058 11.4843 6.87105 11.0946 7.13421 10.2713C7.32787 9.56705 7.21884 8.82587 7.24766 8.10307V6.42444H4.99722C4.9871 7.53463 5.01793 8.64678 4.98094 9.75564C4.92027 10.4372 4.25913 10.8703 3.6295 10.8471C2.84865 10.8556 1.30128 10.2694 1.30128 10.2694C1.29739 8.18931 1.32393 5.58415 1.33497 3.51099Z" fill="url(#paint1_linear_0_91)"/>
<path id="Path_3" d="M8.49253 7.10158C8.37366 7.12723 8.46862 6.68964 8.43824 6.52364C8.44633 5.47407 8.42131 4.42335 8.45205 3.37453C8.5536 2.04313 9.76869 0.947052 11.0734 0.978217H14.9158C14.9121 5.48842 14.9229 9.9991 14.9104 14.509C14.8597 15.8407 13.6913 16.982 12.3892 17.0057C11.0722 17.0107 9.75524 17.0065 8.43819 17.0077V10.8393C9.33766 11.5901 10.5601 11.7069 11.6808 11.709C12.5256 11.7087 13.3655 11.5762 14.1858 11.378V10.2479C13.2612 10.7167 12.1745 11.0144 11.1495 10.7451C10.4346 10.5641 9.91566 9.86118 9.92718 9.11061C9.84431 8.33005 10.2941 7.50598 11.0482 7.27392C11.9842 6.97578 13.0046 7.20381 13.882 7.59142C14.07 7.69158 14.2609 7.81579 14.1857 7.49609V6.60786C12.7182 6.25265 11.1563 6.12193 9.68183 6.50836C9.25509 6.63084 8.83929 6.8165 8.49253 7.10158Z" fill="url(#paint2_linear_0_91)"/>
</g>
<defs>
<linearGradient id="paint0_linear_0_91" x1="11.6482" y1="768.215" x2="660.228" y2="768.215" gradientUnits="userSpaceOnUse">
<stop stop-color="#007B40"/>
<stop offset="1" stop-color="#55B330"/>
</linearGradient>
<linearGradient id="paint1_linear_0_91" x1="-9.36866" y1="817.854" x2="639.219" y2="817.854" gradientUnits="userSpaceOnUse">
<stop stop-color="#1D2970"/>
<stop offset="1" stop-color="#006DBA"/>
</linearGradient>
<linearGradient id="paint2_linear_0_91" x1="8.22121" y1="783.773" x2="656.804" y2="783.773" gradientUnits="userSpaceOnUse">
<stop stop-color="#6E2B2F"/>
<stop offset="1" stop-color="#E30138"/>
</linearGradient>
</defs>
</svg>
