<svg preserveAspectRatio="none" overflow="visible" style="display: block;" width="19.0933" height="19.1958" viewBox="0 0 19.0933 19.1958" fill="none" xmlns="http://www.w3.org/2000/svg">
<g id="search">
<mask id="mask0_0_4" style="mask-type:alpha" maskUnits="userSpaceOnUse" x="0" y="0" width="20" height="20">
<rect id="Bounding box" width="19.0933" height="19.1958" fill="white"/>
</mask>
<g mask="url(#mask0_0_4)">
<path id="search_2" d="M8.34867 13.6008C6.90341 13.6008 5.68025 13.0976 4.67917 12.0912C3.6781 11.0847 3.17756 9.855 3.17756 8.40198C3.17756 6.94897 3.6781 5.71924 4.67917 4.71279C5.68025 3.70635 6.90341 3.20312 8.34867 3.20312C9.79393 3.20312 11.0171 3.70635 12.0182 4.71279C13.0192 5.71924 13.5198 6.94897 13.5198 8.40198C13.5198 8.98852 13.427 9.54173 13.2413 10.0616C13.0557 10.5815 12.8038 11.0414 12.4856 11.4413L14.965 14.2274C15.1109 14.374 15.1838 14.5606 15.1838 14.7872C15.1838 15.0139 15.1109 15.2005 14.965 15.3471C14.8192 15.4938 14.6336 15.5671 14.4082 15.5671C14.1827 15.5671 13.9971 15.4938 13.8513 15.3471L11.3718 12.5611C10.974 12.881 10.5166 13.1343 9.99945 13.3209C9.48234 13.5075 8.93208 13.6008 8.34867 13.6008ZM8.34867 12.0012C9.34312 12.0012 10.1884 11.6513 10.8845 10.9514C11.5806 10.2516 11.9287 9.40176 11.9287 8.40198C11.9287 7.4022 11.5806 6.55239 10.8845 5.85254C10.1884 5.1527 9.34312 4.80277 8.34867 4.80277C7.35423 4.80277 6.50895 5.1527 5.81284 5.85254C5.11673 6.55239 4.76867 7.4022 4.76867 8.40198C4.76867 9.40176 5.11673 10.2516 5.81284 10.9514C6.50895 11.6513 7.35423 12.0012 8.34867 12.0012Z" fill="white"/>
</g>
</g>
</svg>
